<svg xmlns="http://www.w3.org/2000/svg" viewBox="0 0 336 280" role="img" aria-labelledby="title desc">
  <title id="title">Irigate mark</title>
  <desc id="desc">A six-petal Iris flower whose lower petals frame an open gate</desc>
  <defs>
    <clipPath id="irigate-mark-band">
      <rect x="0" y="150" width="240" height="30"/>
    </clipPath>
    <mask id="irigate-mark-band-gate">
      <rect x="0" y="0" width="240" height="220" fill="white"/>
      <path d="M102 220 L102 185 C102 155 138 155 138 185 L138 220 Z" fill="black"/>
    </mask>
  </defs>
  <g transform="translate(48 30)" fill="#ffc72c" mask="url(#irigate-mark-band-gate)">
    <path d="M120 150 C103 118 92 66 120 10 C148 66 137 118 120 150 Z"/>
    <path d="M112 145 C78 136 38 102 24 48 C68 55 105 82 120 126 C119 135 116 141 112 145 Z"/>
    <path d="M128 145 C162 136 202 102 216 48 C172 55 135 82 120 126 C121 135 124 141 128 145 Z"/>
    <path d="M112 137 C79 145 43 172 24 220 C67 213 96 194 112 174 C106 196 99 211 91 220 C108 211 118 184 120 151 C119 145 116 140 112 137 Z"/>
    <path d="M128 137 C161 145 197 172 216 220 C173 213 144 194 128 174 C134 196 141 211 149 220 C132 211 122 184 120 151 C121 145 124 140 128 137 Z"/>
    <path d="M120 137 C91 158 87 190 88 220 L152 220 C153 190 149 158 120 137 Z"/>
  </g>
  <g transform="translate(48 30)" fill="#f9a23a" clip-path="url(#irigate-mark-band)" mask="url(#irigate-mark-band-gate)">
    <path d="M120 150 C103 118 92 66 120 10 C148 66 137 118 120 150 Z"/>
    <path d="M112 145 C78 136 38 102 24 48 C68 55 105 82 120 126 C119 135 116 141 112 145 Z"/>
    <path d="M128 145 C162 136 202 102 216 48 C172 55 135 82 120 126 C121 135 124 141 128 145 Z"/>
    <path d="M112 137 C79 145 43 172 24 220 C67 213 96 194 112 174 C106 196 99 211 91 220 C108 211 118 184 120 151 C119 145 116 140 112 137 Z"/>
    <path d="M128 137 C161 145 197 172 216 220 C173 213 144 194 128 174 C134 196 141 211 149 220 C132 211 122 184 120 151 C121 145 124 140 128 137 Z"/>
    <path d="M120 137 C91 158 87 190 88 220 L152 220 C153 190 149 158 120 137 Z"/>
  </g>
</svg>
